<svg width="24" height="24" viewBox="0 0 24 24" fill="none" xmlns="http://www.w3.org/2000/svg">
<path d="M3 20L3.02215 19.9793C3.31845 19.704 3.71989 19.5839 4.10697 19.6606L8.33613 20.533C8.71433 20.6079 9.09289 20.4724 9.36839 20.184L14.6316 14.656C14.9071 14.3676 15.2857 14.2321 15.6639 14.307L19.893 15.1793C20.2801 15.256 20.6816 15.1359 20.9779 14.8607L21 14.7913" stroke="#0096C7" stroke-width="2" stroke-linecap="round" stroke-linejoin="round"/>
<path d="M3 4L3.02215 4.02071C3.31845 4.29601 3.71989 4.41608 4.10697 4.3394L8.33613 3.46697C8.71433 3.39209 9.09289 3.52757 9.36839 3.81597L14.6316 9.34403C14.9071 9.63243 15.2857 9.76791 15.6639 9.69303L19.893 8.82067C20.2801 8.74399 20.6816 8.86406 20.9779 9.13932L21 9.20867" stroke="#0096C7" stroke-width="2" stroke-linecap="round" stroke-linejoin="round"/>
</svg>
