<svg width="250" height="150" viewBox="0 0 250 150" fill="none" xmlns="http://www.w3.org/2000/svg">
<path d="M20 130 C 40 110, 60 110, 80 120 S 120 140, 140 130 S 180 110, 200 120 S 240 140, 260 130" stroke="#023E8A" stroke-width="2" fill="url(#paint0_linear_world)"/>
<path d="M20 120 C 40 100, 60 100, 80 110 S 120 130, 140 120 S 180 100, 200 110 S 240 130, 260 120" stroke="#48CAE4" stroke-width="2" fill="url(#paint1_linear_world)"/>
<path d="M20 110 C 40 90, 60 90, 80 100 S 120 120, 140 110 S 180 90, 200 100 S 240 120, 260 110" stroke="#ADE8F4" stroke-width="2" fill="url(#paint2_linear_world)"/>
<defs>
<linearGradient id="paint0_linear_world" x1="140" y1="110" x2="140" y2="130" gradientUnits="userSpaceOnUse">
<stop stop-color="#023E8A" stop-opacity="0.7"/>
<stop offset="1" stop-color="#023E8A" stop-opacity="0.1"/>
</linearGradient>
<linearGradient id="paint1_linear_world" x1="140" y1="100" x2="140" y2="120" gradientUnits="userSpaceOnUse">
<stop stop-color="#48CAE4" stop-opacity="0.7"/>
<stop offset="1" stop-color="#48CAE4" stop-opacity="0.1"/>
</linearGradient>
<linearGradient id="paint2_linear_world" x1="140" y1="90" x2="140" y2="110" gradientUnits="userSpaceOnUse">
<stop stop-color="#ADE8F4" stop-opacity="0.7"/>
<stop offset="1" stop-color="#ADE8F4" stop-opacity="0.1"/>
</linearGradient>
</defs>
</svg>
