<svg width="24" height="24" viewBox="0 0 24 24" fill="none" xmlns="http://www.w3.org/2000/svg">
<path d="M12 15C13.6569 15 15 13.6569 15 12C15 10.3431 13.6569 9 12 9C10.3431 9 9 10.3431 9 12C9 13.6569 10.3431 15 12 15Z" stroke="#E0E0E0" stroke-width="2" stroke-linecap="round" stroke-linejoin="round"/>
<path d="M19.4 15L21.5 16.4C21.8 16.6 22 17.1 22 17.5V19.5C22 19.9 21.8 20.3 21.5 20.5L19.4 21.9C19.1 22.1 18.6 22.2 18.2 22.1L16.1 21.4C15.7 21.3 15.3 21.4 15 21.7L13.6 23.8C13.4 24.1 12.9 24.3 12.5 24.3H11.5C11.1 24.3 10.6 24.1 10.4 23.8L9 21.7C8.7 21.4 8.3 21.3 7.9 21.4L5.8 22.1C5.4 22.2 4.9 22.1 4.6 21.9L2.5 20.5C2.2 20.3 2 19.9 2 19.5V17.5C2 17.1 2.2 16.6 2.5 16.4L4.6 15C4.9 14.8 5.1 14.3 5 13.9L4.3 11.8C4.2 11.4 4.3 10.9 4.6 10.6L6.7 8.5C7 8.2 7.4 8 7.8 8H9.8C10.2 8 10.7 8.2 10.9 8.5L12.3 10.6C12.6 10.9 13.1 11 13.5 10.9L15.6 10.2C16 10.1 16.5 10.2 16.8 10.4L18.9 12.5C19.2 12.8 19.4 13.2 19.3 13.6L18.6 15.7C18.5 16.1 18.6 16.6 18.9 16.9L19.4 15Z" stroke="#E0E0E0" stroke-width="2" stroke-linecap="round" stroke-linejoin="round"/>
</svg>
